<?xml version="1.0" encoding="utf-8"?>
<!-- Generator: Adobe Illustrator 25.2.1, SVG Export Plug-In . SVG Version: 6.00 Build 0)  -->
<svg version="1.1" id="レイヤー_1" xmlns="http://www.w3.org/2000/svg" xmlns:xlink="http://www.w3.org/1999/xlink" x="0px"
	 y="0px" viewBox="0 0 90 90" style="enable-background:new 0 0 90 90;" xml:space="preserve">
<style type="text/css">
	.st0{fill:#B99838;}
</style>
<path class="st0" d="M45.1,11c-22.7,0-41,13.4-41,30c0,10.3,7.1,19.4,18,24.8c0,0.1,0,0.1,0,0.2c-0.1,2.4-0.7,4.8-1.9,7
	c-0.6,0.9-0.9,1.9-1,3c-0.1,1.5,0.7,3,2.1,3c0.2,0,0.7-0.1,0.7,0c5.8-0.5,12.8-5.7,15.3-8.5c2.6,0.4,5.3,0.6,7.9,0.6
	c22.7,0,41-13.4,41-30C86.1,24.5,67.8,11,45.1,11z M45.1,66.8L45.1,66.8c-2.5,0-5-0.2-7.5-0.5c-0.3,0-0.5-0.1-0.8-0.1
	c-1.6,0-3.1,0.7-4.1,1.9c-1.7,1.8-3.6,3.5-5.6,4.9c-2.5,1.7-3.8,1.4-3,0c1.2-2.1,2.3-4.5,2.3-5.9c0-0.2,0-0.3,0-0.5
	c0-2-1.1-3.8-2.9-4.6C13.7,57.1,7.8,49.2,7.8,40.8c0-14.3,16.7-26,37.3-26s37.3,11.7,37.3,26S65.7,66.8,45.1,66.8z"/>
<path class="st0" d="M24.8,45.8c-0.3,0.5-0.7,1-1.1,1.4c-0.5,0.4-1,0.7-1.7,0.8c-0.6,0.2-1.3,0.3-2.1,0.3c-1.1,0-2.1-0.1-2.9-0.4
	c-0.9-0.3-1.6-0.8-2.3-1.5l1.8-1.8c0.5,0.5,1,0.8,1.6,0.9s1.2,0.3,1.9,0.3c0.8,0,1.5-0.2,1.9-0.5s0.6-0.7,0.6-1.3
	c0-0.5-0.1-0.9-0.4-1.2c-0.1-0.1-0.3-0.2-0.5-0.3c-0.2-0.1-0.4-0.1-0.8-0.2L19,42c-1.2-0.2-2.2-0.6-2.8-1.2c-0.7-0.7-1-1.6-1-2.8
	c0-0.6,0.1-1.2,0.3-1.8c0.2-0.5,0.6-1,1-1.4c0.4-0.4,1-0.7,1.6-0.9c0.6-0.2,1.3-0.3,2.1-0.3c1,0,1.9,0.1,2.6,0.4
	c0.7,0.3,1.4,0.7,2,1.3l-1.8,1.8c-0.5-0.4-0.9-0.7-1.5-0.8s-1-0.2-1.5-0.2c-0.8,0-1.3,0.2-1.7,0.5s-0.5,0.8-0.5,1.3
	c0,0.2,0,0.4,0.1,0.5s0.2,0.3,0.3,0.5c0.1,0.1,0.3,0.3,0.6,0.4s0.5,0.2,0.8,0.2l1.7,0.2c0.7,0.1,1.2,0.2,1.6,0.4
	c0.4,0.2,0.8,0.4,1.1,0.7c0.4,0.4,0.7,0.8,0.8,1.3s0.3,1.1,0.3,1.7C25.2,44.6,25.1,45.2,24.8,45.8z"/>
<path class="st0" d="M34.4,48.2v-6h-4.9v6h-2.8V33.8h2.8v5.9h4.9v-5.9h2.8v14.4H34.4z"/>
<path class="st0" d="M48.5,48.2l-0.8-2.5h-5.1l-0.9,2.5h-2.9l5.2-14.4h2.2l5.2,14.4H48.5z M45.1,38l-1.8,5.2h3.6L45.1,38z"/>
<path class="st0" d="M60.5,48.2l-2.8-5.7h-2v5.7h-2.8V33.8h5.6c0.7,0,1.4,0.1,2,0.4c0.6,0.2,1.1,0.6,1.5,0.9
	c0.4,0.4,0.7,0.9,0.9,1.4c0.2,0.5,0.3,1.1,0.3,1.7c0,0.5-0.1,1-0.2,1.4c-0.1,0.4-0.3,0.8-0.6,1.1s-0.5,0.6-0.8,0.8
	c-0.3,0.2-0.6,0.4-1,0.5l3.2,6.2H60.5z M59.8,36.8c-0.4-0.3-0.9-0.5-1.5-0.5h-2.6v3.8h2.6c0.6,0,1.1-0.2,1.5-0.5
	c0.4-0.3,0.6-0.8,0.6-1.4C60.3,37.6,60.2,37.2,59.8,36.8z"/>
<path class="st0" d="M65.1,48.2V33.8h9.5v2.5h-6.7v3.4h5.7v2.5h-5.7v3.5h6.7v2.5H65.1z"/>
</svg>
