<?xml version="1.0" encoding="utf-8"?>
<!-- Generator: Adobe Illustrator 24.0.0, SVG Export Plug-In . SVG Version: 6.00 Build 0)  -->
<svg version="1.1" id="レイヤー_1" xmlns="http://www.w3.org/2000/svg" xmlns:xlink="http://www.w3.org/1999/xlink" x="0px"
	 y="0px" viewBox="0 0 90 90" style="enable-background:new 0 0 90 90;" xml:space="preserve">
<style type="text/css">
	.st0{fill:#b99838;}
</style>
<g>
	<path class="st0" d="M67,64h-44c-1.7,0-3,1.3-3,3s1.3,3,3,3h44c1.7,0,3-1.3,3-3S68.7,64,67,64z"/>
	<path class="st0" d="M67,42h-44c-1.7,0-3,1.3-3,3s1.3,3,3,3h44c1.7,0,3-1.3,3-3S68.7,42,67,42z"/>
	<path class="st0" d="M23.1,26h44c1.7,0,3-1.3,3-3s-1.3-3-3-3h-44c-1.7,0-3,1.3-3,3S21.4,26,23.1,26z"/>
</g>
</svg>
