<?xml version="1.0" encoding="utf-8"?>
<!-- Generator: Adobe Illustrator 24.0.0, SVG Export Plug-In . SVG Version: 6.00 Build 0)  -->
<svg version="1.1" id="レイヤー_1" xmlns="http://www.w3.org/2000/svg" xmlns:xlink="http://www.w3.org/1999/xlink" x="0px"
	 y="0px" viewBox="0 0 90 90" style="enable-background:new 0 0 90 90;" xml:space="preserve">
<style type="text/css">
	.st0{fill:#b99838;}
</style>
<g>
	<path class="st0" d="M83.9,22.8H16.6c0.1,0.2,0.2,0.5,0.2,0.7c0,1-0.8,1.8-1.8,1.8s-1.8-0.8-1.8-1.8c0-0.3,0.1-0.5,0.2-0.7H5.9
		c-3.3,0-6,2.7-6,6v34c0,3.3,2.7,6,6,6h7.4c-0.1-0.2-0.1-0.4-0.1-0.7c0-1,0.8-1.8,1.8-1.8s1.8,0.8,1.8,1.8c0,0.2,0,0.5-0.1,0.7H84
		c3.3,0,6-2.7,6-6v-34C89.9,25.5,87.2,22.8,83.9,22.8z M85.9,62.8c0,1.1-0.9,2-2,2h-78c-1.1,0-2-0.9-2-2v-34c0-1.1,0.9-2,2-2h78
		c1.1,0,2,0.9,2,2V62.8z"/>
	<polygon class="st0" points="19.6,41.1 23.5,41.1 23.5,52.8 26.3,52.8 26.3,41.1 30.2,41.1 30.2,38.7 19.6,38.7 	"/>
	<rect x="32" y="38.7" class="st0" width="2.9" height="14.1"/>
	<path class="st0" d="M42.1,40.9c1.4,0,2.2,0.8,2.4,2.1h2.7c-0.5-3.1-2.4-4.6-5.2-4.6c-3.2,0-5.4,1.9-5.4,6.2v2
		c0,4.3,2.2,6.2,5.4,6.2c2.9,0,4.7-1.4,5.1-4.6h-2.7c-0.3,1.4-1,2.1-2.4,2.1c-1.7,0-2.5-1.2-2.5-3.8v-2C39.6,42,40.4,40.9,42.1,40.9
		z"/>
	<polygon class="st0" points="59.5,38.7 56.1,38.7 51.6,44.8 51.6,38.7 48.8,38.7 48.8,52.8 51.6,52.8 51.6,49 53.3,46.8 56.9,52.8 
		60.3,52.8 55.2,44.4 	"/>
	<polygon class="st0" points="61.3,52.8 70.1,52.8 70.1,50.4 64.1,50.4 64.1,46.7 69.5,46.7 69.5,44.3 64.1,44.3 64.1,41.1 
		70.1,41.1 70.1,38.7 61.3,38.7 	"/>
	<polygon class="st0" points="71.5,41.1 75.4,41.1 75.4,52.8 78.2,52.8 78.2,41.1 82.1,41.1 82.1,38.7 71.5,38.7 	"/>
	<path class="st0" d="M14.9,28.1c-1,0-1.8,0.8-1.8,1.8s0.8,1.8,1.8,1.8s1.8-0.8,1.8-1.8C16.7,28.9,15.9,28.1,14.9,28.1z"/>
	<path class="st0" d="M14.9,34.5c-1,0-1.8,0.8-1.8,1.8s0.8,1.8,1.8,1.8s1.8-0.8,1.8-1.8C16.7,35.3,15.9,34.5,14.9,34.5z"/>
	<circle class="st0" cx="14.9" cy="42.6" r="1.8"/>
	<path class="st0" d="M14.9,47.2c-1,0-1.8,0.8-1.8,1.8s0.8,1.8,1.8,1.8s1.8-0.8,1.8-1.8C16.7,48,15.9,47.2,14.9,47.2z"/>
	<path class="st0" d="M14.9,53.6c-1,0-1.8,0.8-1.8,1.8s0.8,1.8,1.8,1.8s1.8-0.8,1.8-1.8C16.7,54.4,15.9,53.6,14.9,53.6z"/>
	<circle class="st0" cx="14.9" cy="61.7" r="1.8"/>
</g>
</svg>
